<svg width="99" height="31" viewBox="0 0 99 31" fill="none" xmlns="http://www.w3.org/2000/svg">
<path d="M4.01851 4.02394L17.7268 4.0253L17.725 7.6443L8.46683 7.6506L8.46953 13.1653C11.0072 13.2071 13.6553 13.1687 16.202 13.1695C16.0268 13.6623 15.8469 14.1534 15.6623 14.6429C15.4469 15.2394 15.2272 15.8343 15.0031 16.4276C12.8518 16.4667 10.63 16.4198 8.46629 16.4356L8.46472 24.5057L4.0213 24.5123C3.97499 22.2693 4.01863 19.8664 4.01859 17.6129L4.01851 4.02394Z" fill="#9900CC"/>
<path d="M19.4793 4.02428L23.9662 4.02508L23.9663 24.5085L10.7279 24.5111L10.7288 20.8766L19.4764 20.8794L19.4793 4.02428Z" fill="#9900CC"/>
<path fill-rule="evenodd" clip-rule="evenodd" d="M90.2379 16.1893C90.2958 16.1711 90.3325 16.1854 90.3922 16.199C90.4744 16.3762 90.4375 16.9548 90.4312 17.1766C89.7576 17.0362 88.6057 16.9246 87.8912 16.8348C88.5347 17.1598 89.1011 17.2928 89.4361 17.9969C90.2808 19.7714 88.9409 21.3145 87.1246 21.3094C86.519 21.3076 86.2663 21.2635 85.7066 21.0936C85.3263 21.2892 84.8624 21.6283 85.0699 22.1063C85.4553 22.8935 87.0809 22.6136 87.9117 22.6512C89.6887 22.7318 90.7843 23.5121 90.1529 25.408C89.9777 25.9343 89.2519 26.28 88.7144 26.451C87.7559 26.7019 86.7848 26.685 85.8141 26.5662C83.6205 26.2979 82.5951 24.0974 85.4273 23.5819C85.0685 23.4797 84.8547 23.4466 84.5465 23.2069C84.044 22.816 83.8655 22.0719 84.2867 21.5535C84.6015 21.1672 85.0737 21.098 85.5455 21.0526C85.4548 20.998 85.3645 20.9405 85.2769 20.8807C84.2996 20.2033 83.939 18.8343 84.6353 17.8192C85.3314 16.8038 86.8587 16.762 87.9684 16.5799L90.2379 16.1893ZM89.2291 24.2801C88.9815 23.2831 86.6261 23.5414 85.8277 23.6014C85.191 23.7938 84.5876 24.1917 84.8121 24.9178C85.115 25.8964 87.5091 25.7541 88.2105 25.618C88.9083 25.4267 89.4338 25.1068 89.2291 24.2801ZM86.65 17.7127C86.1798 17.8321 85.772 17.9911 85.5084 18.4412C85.3469 18.7209 85.3057 19.0545 85.3941 19.3651C85.488 19.7037 85.7148 19.9897 86.023 20.158C86.4357 20.3883 86.9206 20.3823 87.3805 20.3504C87.827 20.2586 88.1547 20.144 88.4195 19.7469C88.816 19.1518 88.5975 18.3379 88.0025 17.9705C87.5495 17.6907 87.1542 17.6917 86.65 17.7127Z" fill="#9900CC"/>
<path fill-rule="evenodd" clip-rule="evenodd" d="M82.2571 4.00124C82.2499 5.47767 82.2528 6.95454 82.2658 8.43092C82.6107 7.36175 83.188 6.44314 84.4133 6.27077C85.1802 6.15603 85.961 6.3553 86.5793 6.8235C88.2633 8.11087 88.2477 10.8913 87.0217 12.5022C85.9282 13.6989 84.0573 13.9225 82.9055 12.6272C82.5526 12.2305 82.4228 11.8034 82.2688 11.3098C82.2023 11.9136 82.1933 12.639 82.1731 13.2561L81.1838 13.2571V4.00026L82.2571 4.00124ZM84.9133 12.5276C87.7082 11.9866 87.4377 6.83508 84.1301 7.1985C83.4092 7.37941 83.0194 7.61299 82.5862 8.2571C82.1881 8.84909 82.1578 10.1773 82.3293 10.8548C82.4735 11.4389 82.8457 11.9408 83.3625 12.2483C83.8255 12.5194 84.3853 12.6102 84.9133 12.5276Z" fill="#9900CC"/>
<path fill-rule="evenodd" clip-rule="evenodd" d="M59.1274 6.26228C61.1069 6.12685 62.8232 7.61943 62.9653 9.60017C63.1072 11.5811 61.6209 13.3043 59.642 13.4527C57.6542 13.6018 55.9233 12.1058 55.7807 10.1158C55.6382 8.12587 57.1386 6.39858 59.1274 6.26228ZM60.7485 7.5572C60.1535 7.17575 59.638 7.15152 58.975 7.19685C55.77 7.7726 56.3518 13.058 59.8725 12.4927C60.4918 12.368 61.0523 12.057 61.3959 11.5162C62.1575 10.3174 62.0137 8.36855 60.7485 7.5572Z" fill="#9900CC"/>
<path fill-rule="evenodd" clip-rule="evenodd" d="M39.3992 16.8393C41.3852 16.6001 43.1862 18.0257 43.41 20.0151C43.6335 22.0045 42.1944 23.796 40.2049 24.0043C38.2371 24.2104 36.4719 22.7885 36.2508 20.8208C36.0299 18.8533 37.4352 17.0761 39.3992 16.8393ZM39.7068 17.7163C38.9337 17.8389 38.3161 18.0369 37.8436 18.7026C37.0586 19.8084 37.2021 21.835 38.3592 22.644C38.9074 23.0272 39.4268 23.1102 40.0574 23.0981C40.3171 23.0568 40.563 23.0195 40.7967 22.9243C43.0956 21.9874 42.741 17.8735 40.0555 17.7319C39.9234 17.7249 39.8408 17.7036 39.7068 17.7163Z" fill="#9900CC"/>
<path fill-rule="evenodd" clip-rule="evenodd" d="M37.2331 6.26221C39.2126 6.12678 40.9289 7.61936 41.0709 9.6001C41.2129 11.581 39.7266 13.3042 37.7477 13.4526C35.7599 13.6017 34.029 12.1057 33.8864 10.1157C33.7439 8.1258 35.2443 6.39851 37.2331 6.26221ZM38.8541 7.55713C38.2592 7.17568 37.7437 7.15145 37.0807 7.19678C33.8757 7.77253 34.4575 13.0579 37.9782 12.4927C38.5975 12.3679 39.1579 12.0569 39.5016 11.5161C40.2632 10.3173 40.1194 8.36848 38.8541 7.55713Z" fill="#9900CC"/>
<path fill-rule="evenodd" clip-rule="evenodd" d="M76.5964 6.2618C77.4703 6.25778 78.2687 6.31646 78.9333 6.96981C79.8231 7.84433 79.6598 9.13949 79.6589 10.2735L79.656 13.2569H78.6648C78.6293 12.5078 78.6611 11.4936 78.5857 10.7872C78.5188 11.3535 78.4326 11.8228 78.1062 12.3253C77.3207 13.5346 75.336 13.8078 74.1492 13.0714C73.7001 12.7927 73.5136 12.4034 73.4148 11.9024C73.3241 9.1947 75.7855 9.71998 77.5974 9.54793C78.4164 9.4701 78.8395 8.87777 78.4949 8.09285C78.0251 7.02383 76.3073 6.91752 75.4118 7.45711C74.8108 7.82349 74.5876 8.41786 74.4363 9.06844C74.227 9.07159 73.5603 9.11575 73.4245 9.00789C73.4192 8.97372 73.4156 8.93895 73.4138 8.90438C73.3931 8.3713 73.7476 7.60706 74.114 7.23348C74.819 6.51563 75.5303 6.30162 76.4949 6.26278L76.5964 6.2618ZM78.5544 9.23934C78.0738 11.1094 74.9754 9.46423 74.5105 11.2647C74.4157 11.6311 74.595 12.0579 74.8699 12.3038C75.9893 12.9935 77.6352 12.4143 78.2751 11.3321C78.6559 10.6882 78.6469 10.0596 78.616 9.34285C78.6145 9.31451 78.5812 9.25849 78.5544 9.23934Z" fill="#9900CC"/>
<path d="M30.7026 14.3944C33.1262 14.0765 35.0625 15.5209 35.4175 17.9434L34.261 17.9449C34.0681 16.9583 33.572 16.115 32.6242 15.6789C31.8264 15.3206 30.9195 15.2926 30.1011 15.6009C27.3836 16.6185 27.3838 21.5747 29.9683 22.7353C30.7985 23.1082 31.7167 23.0676 32.5555 22.7499C33.5796 22.2812 33.9884 21.4655 34.2424 20.4306L35.3986 20.4349C35.2088 22.3464 33.8055 23.7643 31.911 23.9916C29.1504 24.3228 27.2465 22.6053 26.9454 19.896C26.6552 17.2847 27.8746 14.6922 30.7026 14.3944Z" fill="#9900CC"/>
<path d="M27.302 4.00089L33.5378 4.00106L33.5386 5.00336C31.8511 5.03971 30.1189 4.98754 28.4182 5.01676L28.4192 7.96118C29.9078 7.99152 31.481 7.96518 32.976 7.96451L32.9767 8.98752L28.4186 8.98869L28.4186 13.2552L27.2994 13.2571L27.302 4.00089Z" fill="#9900CC"/>
<path d="M91.2145 6.26224C92.5374 6.17522 94.0679 6.60316 94.3791 8.11093C94.4065 8.24302 94.4577 8.45547 94.3975 8.57871C94.2039 8.63605 93.6017 8.61264 93.3669 8.6103C93.031 6.45686 89.6823 6.91487 89.7564 8.3134C89.8206 9.53044 93.1711 9.34378 93.9331 10.1468C94.2017 10.4299 94.4415 10.6441 94.4666 11.1247C94.5901 12.9112 93.2506 13.321 91.8427 13.4753C90.0263 13.4868 88.8717 13.0395 88.4855 11.1063L89.601 11.1001C89.7595 12.5958 91.7053 12.8639 92.8401 12.3056C93.2106 12.1234 93.3224 11.8334 93.4154 11.4572C93.3817 11.3078 93.3152 10.9613 93.1917 10.8701C91.9532 9.95435 88.8133 10.5382 88.6885 8.3725C88.6571 7.88271 88.8232 7.40081 89.1501 7.0347C89.6958 6.42835 90.452 6.29882 91.2145 6.26224Z" fill="#9900CC"/>
<path d="M44.3813 6.26202C46.0565 6.15277 47.4312 6.74949 47.5875 8.60973L46.5443 8.6082C46.4388 8.16029 46.3753 7.87454 45.9776 7.53753C45.2299 6.90392 42.8056 6.9814 42.9194 8.32739C43.0108 9.09791 44.3229 9.31688 45.047 9.43405C46.8016 9.71805 48.494 10.5118 47.234 12.5802C46.8454 13.218 45.7691 13.3916 45.0067 13.4756C43.2959 13.4952 41.9151 13.0205 41.6669 11.1044L42.7547 11.1002C42.9301 12.243 43.8459 12.5874 44.8942 12.5571C45.3744 12.5431 45.9666 12.4429 46.3093 12.0795C46.6817 11.688 46.6215 10.9767 46.1302 10.7124C45.632 10.4442 44.9626 10.3897 44.4131 10.2538C43.7092 10.0797 42.9376 9.99126 42.3737 9.48636C42.0567 9.20214 41.8654 8.80339 41.8422 8.378C41.7619 6.85705 43.1091 6.32032 44.3813 6.26202Z" fill="#9900CC"/>
<path d="M54.2523 16.8215C55.9579 16.7354 57.5386 17.1345 57.6899 19.1595C57.3482 19.1695 56.9867 19.165 56.6431 19.1662C56.5668 18.7671 56.4761 18.4528 56.1537 18.1697C55.4356 17.5403 53.9038 17.5266 53.2221 18.231C53.0915 18.3761 52.9752 18.6156 53.0012 18.8154C53.109 19.6473 53.9986 19.719 54.6277 19.8805C55.4841 20.1071 56.5484 20.1848 57.2579 20.7562C57.918 21.288 57.8583 22.5596 57.3203 23.1559C56.7644 23.7716 56.0683 23.9647 55.2802 24.0063C53.532 24.1879 52.0528 23.5812 51.7631 21.6762L52.827 21.6661C52.9549 22.1064 53.0371 22.3859 53.4157 22.6979C53.8984 23.0957 54.6138 23.1665 55.2182 23.106C55.6502 23.0626 56.1545 22.9478 56.4415 22.5965C56.5722 22.4366 56.7329 22.0818 56.6898 21.8819C56.4294 20.6751 53.4489 20.9918 52.5593 20.1125C52.2396 19.847 51.9886 19.5224 51.9544 19.0804C51.8359 17.5517 52.9738 16.9644 54.2523 16.8215Z" fill="#9900CC"/>
<path d="M51.6607 6.26221L51.6724 6.26154C53.5104 6.1655 54.9183 7.24968 55.0126 9.13867L53.9416 9.14029C53.8944 8.74272 53.8414 8.41512 53.6263 8.06267C53.0569 7.12473 51.5786 6.92161 50.6971 7.48425C48.7674 8.71602 49.4046 12.7391 52.0321 12.5248C52.5117 12.4857 52.7565 12.3699 53.1436 12.1224C53.7282 11.6222 53.8401 11.2393 53.9429 10.5106L55.0166 10.5131C54.9861 11.2962 54.793 11.9011 54.2653 12.4933C53.2482 13.7066 50.7563 13.8202 49.635 12.6775C47.5735 10.5768 48.3016 6.40676 51.6607 6.26221Z" fill="#9900CC"/>
<path d="M47.8589 16.8185C47.9799 16.8106 48.1012 16.8063 48.2225 16.8056C48.8819 16.8063 49.5106 16.99 49.9871 17.4683C50.8547 18.3392 50.6899 19.738 50.6899 20.8684L50.689 23.8477L49.6211 23.8483C49.6081 22.4654 49.6471 21.1148 49.6215 19.6935C49.5946 18.1953 48.4702 17.473 47.0669 17.9147C46.7387 18.018 46.507 18.2367 46.2762 18.4897C45.6889 19.3139 45.7132 20.0724 45.7123 21.0463C45.7115 21.9793 45.7155 22.914 45.7183 23.8473L44.6435 23.8488L44.6442 17.0172L45.6399 17.0108C45.669 17.7255 45.7034 18.4401 45.743 19.1543C46.0296 17.8691 46.4857 17.092 47.8589 16.8185Z" fill="#9900CC"/>
<path d="M79.876 16.8189C79.9937 16.81 80.1113 16.806 80.2294 16.8068C80.9026 16.8064 81.5156 16.9807 82.0064 17.4684C82.8722 18.3295 82.7078 19.6315 82.7065 20.7471L82.7033 23.8453L81.6422 23.8489C81.6229 22.4257 81.6831 20.9924 81.6328 19.57C81.5659 17.6877 79.4961 17.2273 78.2958 18.4849C77.4506 19.7303 77.7322 22.3054 77.7335 23.8458L76.667 23.8493L76.6661 17.0164L77.6585 17.0119L77.7492 19.1285C78.0771 17.8741 78.4772 17.1026 79.876 16.8189Z" fill="#9900CC"/>
<path d="M63.755 17.016L64.8399 17.0129L64.8413 23.8481L63.8242 23.8475C63.8138 23.1136 63.7837 22.3801 63.7339 21.6478C63.4231 23.0806 62.8259 24.0461 61.2371 24.0247C58.6352 23.9898 58.8045 21.7819 58.8067 20.022L58.813 17.0162L59.8683 17.0142L59.8602 19.7284C59.8593 20.2891 59.8091 21.2366 59.942 21.7234C60.5397 23.9104 63.535 23.2795 63.6989 21.136C63.8062 19.7344 63.7563 18.3624 63.755 17.016Z" fill="#9900CC"/>
<path d="M66.9021 4L68.0041 4.00156L68.0077 12.2577C69.6027 12.2834 71.2611 12.2603 72.8612 12.2608L72.8585 13.2554L66.898 13.2573L66.9021 4Z" fill="#9900CC"/>
<path d="M69.6395 15.1987L70.6648 15.1983L70.6805 17.0094C71.3011 17.0218 71.9527 17.0127 72.5755 17.0137L72.5733 17.803L70.6796 17.8025C70.6845 19.2067 70.6073 21.1129 70.7546 22.5109C70.8251 23.1801 72.3375 22.8663 72.5585 22.986L72.5773 23.1305L72.5733 23.8535C72.2459 23.8819 71.9177 23.8985 71.5889 23.9034C69.3005 23.946 69.6283 22.5688 69.6319 20.8077L69.6333 17.8044L68.4185 17.8011L68.4194 17.0154L69.6328 17.0129L69.6395 15.1987Z" fill="#9900CC"/>
<path d="M66.3829 14.5614L67.4288 14.5587C67.4665 17.6253 67.4288 20.7721 67.4279 23.8454L66.3825 23.8486C66.3165 20.8619 66.3695 17.566 66.3829 14.5614Z" fill="#9900CC"/>
<path d="M73.8536 17.0166L74.9022 17.013L74.8999 23.8457L73.854 23.8488L73.8536 17.0166Z" fill="#9900CC"/>
<path d="M74.2852 14.4521C74.6754 14.4031 75.032 14.6793 75.0827 15.0698C75.133 15.4604 74.8586 15.8184 74.4684 15.8705C74.0763 15.923 73.7162 15.6464 73.6654 15.2536C73.6142 14.8607 73.8922 14.5014 74.2852 14.4521Z" fill="#9900CC"/>
</svg>
